<?xml version="1.0" encoding="UTF-8"?>
<svg id="_레이어_1" data-name="레이어_1" xmlns="http://www.w3.org/2000/svg" version="1.1" viewBox="0 0 512 512">
  <!-- Generator: Adobe Illustrator 29.1.0, SVG Export Plug-In . SVG Version: 2.1.0 Build 142)  -->
  <defs>
    <style>
      .st0, .st1 {
        fill: #e73828;
      }

      .st0, .st2 {
        opacity: .7;
      }
    </style>
  </defs>
  <g id="_x32_5_Whistle">
    <g>
      <path class="st1" d="M436,203.2l-31.2-20.5c12.6-14.8,14.2-34.7,3.1-45.8-13-13-39.4-8.7-54.2,12.4l-17.8-11.6c-20.6-13.5-46.6-14.2-68-1.8L50.6,264.5c-1.1.7-2,2-2,3.5h0v68.8c0,1.4.7,2.7,1.9,3.5l111.6,68.7c.4,0,1.9,1.2,4,.2l59.9-30.7,88.2,49.8h0c20.3,11,44.5,3.5,64.1-9,76-48.7,114.9-184.5,57.6-216h0ZM402.2,142.7c8.3,8.3,6.2,23.8-4.3,35.5l-37.3-24.4c9.8-13.9,30.5-22.3,41.6-11.1ZM162.4,330.5c-36.4-22.3-64.7-39.7-101.8-62.4l211.5-125.1c18.7-10.8,41.4-10.2,59.4,1.6l81.4,53.2c-10.2.2-21.6,3.7-25.3,5.8-6.3,3.6-220.1,124-225.3,126.9h0ZM374,412.3c-21.2,13.6-41,16.7-55.8,8.7-20.5-11.1-28.3-42.1-20.4-81.1.3-1.5-.3-3.1-1.5-4.1-1.3-1-3-1.1-4.3-.4l-123.8,63.4-1.7-61.3c216.3-121.8,195.2-110,225-126.7,0,0,0,0,.1,0,14.2-5.8,27-6.8,40.5-.6,49.9,27.2,14.7,155.5-58,202.1Z"/>
      <path class="st1" d="M298.8,225c0,1.4-.7,2.7-2,3.4l-29.2,17.5c-1.3.8-2.9.8-4.2,0l-57-35.3c-1.2-.7-2-2-2-3.5s.8-2.7,2-3.5l30.1-18.2c1.3-.8,3-.8,4.3,0l56.1,36c1.2.7,1.9,2.1,1.9,3.5h0Z"/>
    </g>
    <g>
      <path class="st1" d="M436,203.2l-31.2-20.5c12.6-14.8,14.2-34.7,3.1-45.8-13-13-39.4-8.7-54.2,12.4l-17.8-11.6c-20.6-13.5-46.6-14.2-68-1.8L50.6,264.5c-1.1.7-2,2-2,3.5h0v68.8c0,1.4.7,2.7,1.9,3.5l111.6,68.7c.4,0,1.9,1.2,4,.2l59.9-30.7,88.2,49.8h0c20.3,11,44.5,3.5,64.1-9,76-48.7,114.9-184.5,57.6-216h0ZM402.2,142.7c8.3,8.3,6.2,23.8-4.3,35.5l-37.3-24.4c9.8-13.9,30.5-22.3,41.6-11.1ZM162.4,330.5c-36.4-22.3-64.7-39.7-101.8-62.4l211.5-125.1c18.7-10.8,41.4-10.2,59.4,1.6l81.4,53.2c-10.2.2-21.6,3.7-25.3,5.8-6.3,3.6-220.1,124-225.3,126.9h0ZM374,412.3c-21.2,13.6-41,16.7-55.8,8.7-20.5-11.1-28.3-42.1-20.4-81.1.3-1.5-.3-3.1-1.5-4.1-1.3-1-3-1.1-4.3-.4l-123.8,63.4-1.7-61.3c216.3-121.8,195.2-110,225-126.7,0,0,0,0,.1,0,14.2-5.8,27-6.8,40.5-.6,49.9,27.2,14.7,155.5-58,202.1Z"/>
      <path class="st1" d="M298.8,225c0,1.4-.7,2.7-2,3.4l-29.2,17.5c-1.3.8-2.9.8-4.2,0l-57-35.3c-1.2-.7-2-2-2-3.5s.8-2.7,2-3.5l30.1-18.2c1.3-.8,3-.8,4.3,0l56.1,36c1.2.7,1.9,2.1,1.9,3.5h0Z"/>
    </g>
  </g>
  <g id="_x32_5_Whistle1" data-name="_x32_5_Whistle" class="st2">
    <g>
      <path class="st1" d="M436,203.2l-31.2-20.5c12.6-14.8,14.2-34.7,3.1-45.8-13-13-39.4-8.7-54.2,12.4l-17.8-11.6c-20.6-13.5-46.6-14.2-68-1.8L50.6,264.5c-1.1.7-2,2-2,3.5h0v68.8c0,1.4.7,2.7,1.9,3.5l111.6,68.7c.4,0,1.9,1.2,4,.2l59.9-30.7,88.2,49.8h0c20.3,11,44.5,3.5,64.1-9,76-48.7,114.9-184.5,57.6-216h0ZM402.2,142.7c8.3,8.3,6.2,23.8-4.3,35.5l-37.3-24.4c9.8-13.9,30.5-22.3,41.6-11.1ZM162.4,330.5c-36.4-22.3-64.7-39.7-101.8-62.4l211.5-125.1c18.7-10.8,41.4-10.2,59.4,1.6l81.4,53.2c-10.2.2-21.6,3.7-25.3,5.8-6.3,3.6-220.1,124-225.3,126.9h0Z"/>
      <path class="st1" d="M298.8,225c0,1.4-.7,2.7-2,3.4l-29.2,17.5c-1.3.8-2.9.8-4.2,0l-57-35.3c-1.2-.7-2-2-2-3.5s.8-2.7,2-3.5l30.1-18.2c1.3-.8,3-.8,4.3,0l56.1,36c1.2.7,1.9,2.1,1.9,3.5h0Z"/>
    </g>
    <g>
      <path class="st0" d="M436,203.2l-31.2-20.5c12.6-14.8,14.2-34.7,3.1-45.8-13-13-39.4-8.7-54.2,12.4l-17.8-11.6c-20.6-13.5-46.6-14.2-68-1.8L50.6,264.5c-1.1.7-2,2-2,3.5h0v68.8c0,1.4.7,2.7,1.9,3.5l111.6,68.7c.4,0,1.9,1.2,4,.2l59.9-30.7,88.2,49.8h0c20.3,11,44.5,3.5,64.1-9,76-48.7,114.9-184.5,57.6-216h0ZM402.2,142.7c8.3,8.3,6.2,23.8-4.3,35.5l-37.3-24.4c9.8-13.9,30.5-22.3,41.6-11.1ZM162.4,330.5c-36.4-22.3-64.7-39.7-101.8-62.4l211.5-125.1c18.7-10.8,41.4-10.2,59.4,1.6l81.4,53.2c-10.2.2-21.6,3.7-25.3,5.8-6.3,3.6-220.1,124-225.3,126.9h0Z"/>
      <path class="st1" d="M298.8,225c0,1.4-.7,2.7-2,3.4l-29.2,17.5c-1.3.8-2.9.8-4.2,0l-57-35.3c-1.2-.7-2-2-2-3.5s.8-2.7,2-3.5l30.1-18.2c1.3-.8,3-.8,4.3,0l56.1,36c1.2.7,1.9,2.1,1.9,3.5h0Z"/>
    </g>
  </g>
  <g>
    <rect class="st1" x="165.5" y="91.8" width="8.5" height="70.9" transform="translate(-40.9 101.9) rotate(-30)"/>
    <rect class="st1" x="121.4" y="134.4" width="8.5" height="56.7" transform="translate(-78.1 190.2) rotate(-60)"/>
    <rect class="st1" x="218.3" y="78.5" width="8.5" height="56.7"/>
  </g>
</svg>